<?xml version="1.0" encoding="UTF-8"?>
<svg id="Layer_2" data-name="Layer 2" xmlns="http://www.w3.org/2000/svg" xmlns:xlink="http://www.w3.org/1999/xlink" viewBox="0 0 176.59 184.75">
  <defs>
    <style>
      .cls-1 {
        fill: none;
      }

      .cls-2 {
        fill: #3a3c46;
        filter: url(#drop-shadow-1);
      }

      .cls-3 {
        fill: #fff;
      }

      .cls-4 {
        fill: #bd9a62;
      }

      .cls-5 {
        clip-path: url(#clippath);
      }

      .cls-6 {
        fill: #be9c5d;
      }
    </style>
    <filter id="drop-shadow-1" x="0" y="7.64" width="171" height="172" filterUnits="userSpaceOnUse">
      <feOffset dx="1" dy="1"/>
      <feGaussianBlur result="blur" stdDeviation="1"/>
      <feFlood flood-color="#000" flood-opacity=".5"/>
      <feComposite in2="blur" operator="in"/>
      <feComposite in="SourceGraphic"/>
    </filter>
    <clipPath id="clippath">
      <rect class="cls-1" x="83.97" width="92.62" height="184.75"/>
    </clipPath>
  </defs>
  <g id="Layer_1-2" data-name="Layer 1">
    <g>
      <g>
        <path class="cls-2" d="M166.77,92.34c0-45.49-36.87-82.36-82.36-82.36S2.05,46.86,2.05,92.34s36.87,82.36,82.36,82.36,82.36-36.87,82.36-82.36Z"/>
        <path class="cls-3" d="M124.64,33.75c12.18,2.93,9.5,64.8,9.04,76.28-1.21,30.18-26.71,54.82-57.37,49.84-23.81-3.87-40.39-25.69-41.6-49.19-.98-18.97-1.73-55.97,4.5-72.27,1.69-4.43,7.26-6.37,10.98-3.58,7.35,5.51,12.95,12.47,18.06,20.15,10.64-3.04,20.92-3.06,31.48-.07,5.15-6.38,16.25-23.23,24.91-21.15ZM121.46,42.69c-8.16,6.24-12.98,13.6-17.41,23.11-12.85-6.84-26.96-6.09-40.26.04-4.35-9.08-9.08-16.89-17.6-23.47-4.07,25.56-6.2,51.28-1.38,76.41,3.64,19,20.14,33.27,39.15,33.37,21.7.11,39.3-17.43,41.08-38.74.97-11.53,2.35-61.34-3.58-70.71Z"/>
        <path d="M96.29,141.16c-7.96,5.35-16.81,7.74-25.25,2.92,33.98-22.16-1.25-48.8,34.68-66.55,17.69,15.96,11.32,49.7-9.43,63.63Z"/>
        <path d="M65.45,141.89c-4.77-3.9-7.97-8.58-9.28-14.27-4.6-19.98,3.79-41.3,21.36-51.8,7.08-4.23,15.54-5.23,22.69-1.43-35.56,24.46.82,47.13-34.77,67.5Z"/>
      </g>
      <g class="cls-5">
        <path class="cls-4" d="M124.64,33.75c12.18,2.93,9.5,64.8,9.04,76.28-1.21,30.18-26.71,54.82-57.37,49.84-23.81-3.87-40.39-25.69-41.6-49.19-.98-18.97-1.73-55.97,4.5-72.27,1.69-4.43,7.26-6.37,10.98-3.58,7.35,5.51,12.95,12.47,18.06,20.15,10.64-3.04,20.92-3.06,31.48-.07,5.15-6.38,16.25-23.23,24.91-21.15ZM121.46,42.69c-8.16,6.24-12.98,13.6-17.41,23.11-12.85-6.84-26.96-6.09-40.26.04-4.35-9.08-9.08-16.89-17.6-23.47-4.07,25.56-6.2,51.28-1.38,76.41,3.64,19,20.14,33.27,39.15,33.37,21.7.11,39.3-17.43,41.08-38.74.97-11.53,2.35-61.34-3.58-70.71Z"/>
      </g>
      <path class="cls-6" d="M96.29,141.16c-7.96,5.35-16.81,7.74-25.25,2.92,33.98-22.16-1.25-48.8,34.68-66.55,17.69,15.96,11.32,49.7-9.43,63.63Z"/>
      <path class="cls-3" d="M65.45,141.89c-4.77-3.9-7.97-8.58-9.28-14.27-4.6-19.98,3.79-41.3,21.36-51.8,7.08-4.23,15.54-5.23,22.69-1.43-35.56,24.46.82,47.13-34.77,67.5Z"/>
    </g>
  </g>
</svg>